<svg xmlns="http://www.w3.org/2000/svg" viewBox="0 0 400 320">
  <!-- Sample coloring-page style dog: closed outline + interior detail lines -->
  <g fill="none" stroke="#000" stroke-width="3" stroke-linecap="round" stroke-linejoin="round">
    <!-- outline (closed) -->
    <path d="M 38 150
             C 44 138 52 132 60 128
             C 68 120 74 113 80 108
             C 84 96 88 86 92 78
             C 95 71 98 66 102 64
             C 107 68 112 78 118 92
             C 126 100 134 103 142 104
             C 176 100 216 96 250 98
             C 255 96 259 94 262 92
             C 278 74 295 55 310 44
             C 316 40 321 42 320 50
             C 321 56 322 60 322 64
             C 314 84 304 102 295 118
             C 298 128 300 139 300 150
             C 302 168 304 187 304 205
             C 305 218 306 231 306 242
             C 299 245 291 246 284 244
             C 283 228 282 212 282 196
             C 267 192 252 191 238 190
             C 215 191 192 191 170 192
             C 167 209 164 226 162 242
             C 154 245 146 246 138 244
             C 140 228 142 212 144 196
             C 134 188 124 180 116 172
             C 103 168 90 165 78 162
             C 66 162 54 160 44 158
             C 40 156 37 153 38 150 Z"/>
    <!-- eye -->
    <circle cx="72" cy="126" r="5"/>
    <!-- ear inner line -->
    <path d="M 94 82 Q 100 76 106 88"/>
    <!-- mouth -->
    <path d="M 44 155 Q 55 161 66 157"/>
    <!-- collar -->
    <path d="M 116 148 Q 132 162 150 157"/>
    <path d="M 118 157 Q 133 170 151 165"/>
    <!-- shoulder / front leg -->
    <path d="M 144 194 Q 130 160 150 138"/>
    <!-- hip / hind leg -->
    <path d="M 282 194 Q 262 158 286 136"/>
    <!-- tail base -->
    <path d="M 262 100 Q 274 90 283 78"/>
    <!-- body contour -->
    <path d="M 186 148 Q 198 170 222 163"/>
  </g>
</svg>
